<?xml version="1.0" standalone="no"?>
<!DOCTYPE svg PUBLIC "-//W3C//DTD SVG 20010904//EN"
 "http://www.w3.org/TR/2001/REC-SVG-20010904/DTD/svg10.dtd">
<svg version="1.0" xmlns="http://www.w3.org/2000/svg"
 width="467.000000pt" height="467.000000pt" viewBox="0 0 467.000000 467.000000"
 preserveAspectRatio="xMidYMid meet">
<metadata>
Created by potrace 1.14, written by Peter Selinger 2001-2017
</metadata>
<g transform="translate(0.000000,467.000000) scale(0.100000,-0.100000)"
fill="#000000" stroke="none">
<path d="M1900 4060 c-179 -5 -352 -12 -385 -16 -33 -4 -92 -8 -132 -8 -68 -1
-74 -3 -107 -35 -20 -19 -45 -58 -56 -87 -27 -73 -49 -121 -158 -344 -95 -194
-178 -368 -233 -488 -128 -276 -278 -591 -425 -889 -96 -194 -187 -387 -203
-430 -42 -114 -61 -243 -61 -414 0 -143 1 -151 36 -256 47 -141 115 -263 184
-331 30 -30 64 -60 75 -67 15 -10 152 -15 565 -20 300 -4 619 -9 710 -11 439
-12 2027 -4 2330 12 l115 6 48 50 c27 28 46 55 44 62 -26 69 -62 185 -92 296
-21 74 -49 172 -63 218 -24 80 -25 85 -9 112 9 15 17 35 17 43 0 8 7 20 15 27
13 11 13 15 3 21 -10 7 -9 9 3 9 8 0 24 17 34 38 36 71 37 69 -3 70 -46 1 -95
-8 -87 -16 3 -3 25 -5 49 -3 24 1 47 -2 50 -8 10 -16 -12 -23 -34 -11 -11 6
-20 7 -20 2 0 -11 -78 -13 -85 -1 -4 5 -11 9 -16 9 -6 0 -7 -4 -4 -10 4 -7
-90 -11 -272 -12 -318 -2 -299 -2 -778 -12 -198 -4 -391 -9 -430 -11 -102 -6
-947 -7 -953 -1 -2 3 -12 2 -21 -3 -21 -10 -123 -7 -141 4 -9 5 -11 4 -6 -3 9
-14 -3 -15 -24 -2 -9 5 -19 5 -27 -2 -7 -6 -13 -7 -13 -2 0 5 -30 10 -66 11
-37 2 -73 8 -81 14 -7 7 -16 9 -20 5 -3 -3 -1 -6 6 -6 7 0 10 -4 7 -9 -3 -5
-29 -8 -58 -7 -29 2 -61 -1 -70 -6 -12 -6 -18 -5 -18 3 0 15 -66 3 -94 -17
-17 -12 -18 -14 -4 -14 9 0 20 5 23 10 5 8 11 8 19 1 7 -6 16 -8 19 -5 5 6 98
6 222 0 22 -1 55 1 73 5 17 4 32 4 32 0 0 -3 130 -5 290 -4 194 2 290 -1 290
-7 0 -7 -48 -11 -132 -11 -176 1 -168 1 -168 -10 0 -10 1030 -6 1445 6 429 12
1047 17 1042 8 -3 -5 -137 -10 -314 -12 -169 -1 -346 -4 -393 -6 -47 -2 -188
-7 -315 -10 -126 -4 -242 -8 -258 -10 -15 -2 -280 -6 -590 -9 -558 -6 -717
-11 -717 -25 0 -8 293 -6 901 4 306 6 373 5 380 -7 6 -10 9 -10 9 0 0 14 95
17 104 3 9 -14 -6 -21 -21 -9 -11 9 -16 9 -22 0 -7 -12 -13 -12 -98 -11 -34 0
-53 -4 -53 -12 0 -7 -4 -8 -12 -2 -17 12 -58 10 -83 -5 -16 -9 17 -11 158 -12
111 0 177 -4 177 -10 0 -6 -42 -11 -102 -12 -57 0 -114 -2 -128 -3 -14 -2 -41
-4 -60 -6 -19 -2 12 -5 69 -8 71 -4 106 -10 109 -18 3 -10 -15 -13 -66 -13
-47 0 -71 -4 -75 -12 -3 -8 5 -14 19 -14 13 -1 24 2 24 7 0 6 8 5 19 -1 25
-13 41 -13 21 0 -11 7 3 9 45 9 33 -1 52 -3 42 -6 -9 -2 -15 -9 -12 -14 4 -5
1 -9 -4 -9 -6 0 -11 -4 -11 -9 0 -5 12 -9 28 -8 15 1 50 0 79 -1 42 -2 51 -5
47 -17 -5 -12 3 -15 40 -15 25 0 46 -4 46 -8 0 -5 -17 -8 -37 -7 -57 3 -63 -7
-12 -19 30 -8 47 -8 52 -1 6 7 10 6 14 -2 2 -7 11 -13 19 -13 9 0 12 -4 9 -10
-3 -5 -22 -10 -41 -10 -19 0 -34 -5 -34 -11 0 -6 10 -10 23 -9 12 1 42 1 67 0
37 -2 28 -5 -45 -15 l-90 -12 60 -3 c33 -2 68 -4 78 -3 25 0 21 -18 -5 -25
-21 -6 -21 -7 6 -12 16 -3 31 -11 34 -17 3 -10 -14 -13 -60 -14 -43 0 -57 -3
-43 -9 11 -4 40 -6 65 -3 31 3 41 1 31 -5 -8 -6 -20 -8 -28 -5 -7 3 -13 0 -13
-6 0 -6 -12 -12 -27 -12 l-28 -1 30 -8 c20 -4 25 -9 15 -13 -18 -6 -108 -19
-132 -19 -10 1 -18 -5 -18 -12 0 -21 -89 -27 -490 -32 -206 -3 -493 -6 -637
-8 -189 -2 -288 1 -360 11 -54 8 -143 16 -198 18 -219 8 -243 10 -240 15 2 3
-73 6 -166 5 -93 0 -169 3 -169 7 0 4 -41 5 -91 3 -70 -2 -92 0 -96 11 -3 8
-11 14 -18 14 -19 0 -108 87 -100 99 3 6 0 11 -7 11 -11 0 -41 35 -43 50 0 3
-4 11 -8 17 -5 7 -6 17 -2 22 3 5 -4 12 -15 16 -13 4 -21 16 -22 33 -1 33 -3
42 -11 65 -15 40 -15 47 0 55 14 8 13 10 -2 15 -9 4 -14 11 -11 16 3 4 6 45 7
90 1 45 5 83 9 86 4 2 7 22 7 44 0 63 13 69 110 56 46 -6 86 -8 89 -4 2 4 -6
10 -18 12 -13 3 33 3 102 1 69 -2 127 -4 130 -4 6 -2 -61 -28 -73 -29 -5 -1
-5 4 -2 9 4 7 -3 8 -22 4 -29 -7 -61 -28 -33 -22 8 2 14 -3 12 -9 -1 -7 2 -13
8 -13 5 0 10 6 10 13 0 9 2 9 8 -1 5 -7 15 -10 24 -7 8 3 27 1 42 -5 15 -5 33
-7 39 -3 7 4 3 9 -9 14 -17 7 -17 8 -1 8 10 1 28 -4 40 -10 16 -9 22 -9 25 0
2 6 16 11 30 10 24 0 25 -1 7 -9 -15 -6 -7 -9 31 -9 34 -1 54 4 57 12 3 8 20
12 43 11 62 -3 66 -3 59 -14 -3 -5 1 -10 9 -10 9 0 16 7 16 15 0 9 9 15 23 15
79 1 333 13 336 16 2 2 -72 4 -164 3 -103 0 -172 4 -179 11 -7 7 65 10 233 10
159 0 240 -3 236 -10 -3 -5 -1 -10 4 -10 6 0 11 5 11 10 0 13 97 13 102 0 2
-6 12 -11 23 -10 45 1 63 5 59 12 -3 4 13 8 36 8 25 0 39 -4 35 -10 -3 -5 1
-10 10 -10 9 0 13 5 10 10 -6 9 33 16 60 10 5 -1 17 -1 25 -1 540 11 641 9
588 -12 -7 -3 -1 -6 15 -6 17 -1 27 4 27 13 0 9 10 13 25 12 14 0 25 -4 25 -7
0 -10 39 -18 42 -9 4 11 116 21 120 10 2 -5 30 -12 62 -16 37 -4 57 -3 53 2
-3 6 4 11 16 11 18 2 19 0 7 -8 -13 -9 -12 -10 2 -5 10 3 26 2 35 -1 15 -6 15
-7 -3 -14 -18 -7 -17 -8 3 -8 12 -1 25 4 28 9 3 6 14 10 23 9 14 0 13 -2 -3
-9 -13 -5 6 -8 55 -9 46 0 77 4 81 11 6 9 12 8 25 -3 10 -8 15 -9 11 -3 -4 7
13 12 53 13 37 1 60 -2 60 -9 0 -7 6 -8 19 -1 10 6 22 7 26 3 8 -8 125 -10
119 -1 -6 10 60 7 74 -4 8 -6 12 -5 12 4 0 10 3 10 12 1 7 -7 19 -12 28 -12
13 0 13 1 0 10 -12 8 -10 10 8 10 13 0 21 -4 17 -9 -3 -6 67 -10 180 -10 106
0 185 4 185 10 0 14 88 11 93 -3 4 -10 8 -9 16 2 8 12 13 12 23 2 18 -18 124
-16 132 4 4 10 2 13 -7 9 -6 -4 -1 3 13 15 23 20 32 21 135 15 178 -10 195 -7
195 39 -1 37 -100 308 -229 621 -34 83 -93 227 -131 320 -38 94 -87 215 -110
270 -126 301 -165 397 -192 465 -16 41 -35 89 -42 105 -8 17 -30 65 -50 108
-20 43 -36 80 -36 83 0 2 -10 26 -21 52 -12 26 -34 74 -49 107 -15 33 -35 81
-46 107 -10 27 -27 58 -36 70 l-17 23 -673 1 c-370 1 -819 -2 -998 -6z m1425
-2380 c18 -8 17 -9 -7 -9 -16 -1 -28 4 -28 9 0 12 8 12 35 0z m808 4 c23 -4
37 -12 37 -22 0 -12 -3 -12 -15 -2 -10 9 -15 9 -15 1 0 -6 -11 -11 -25 -11
-14 0 -25 5 -25 10 0 6 -7 10 -16 10 -8 0 -12 5 -9 10 7 12 16 12 68 4z
m-3093 -14 c0 -11 -6 -11 -187 -14 -76 0 -123 3 -123 9 0 6 60 11 155 13 99 1
155 -1 155 -8z m647 4 c-3 -3 -12 -4 -19 -1 -8 3 -5 6 6 6 11 1 17 -2 13 -5z
m1386 -21 c-7 -2 -19 -2 -25 0 -7 3 -2 5 12 5 14 0 19 -2 13 -5z m237 -113 c0
-6 -55 -10 -142 -11 -79 -1 -159 -2 -178 -4 -71 -6 -865 -18 -1022 -16 -27 1
-48 6 -48 11 0 6 12 10 28 9 56 -3 1317 14 1321 17 9 8 41 3 41 -6z m178 5
c-3 -3 -43 -8 -89 -10 -55 -3 -77 -1 -64 4 21 10 162 15 153 6z m69 -1 c-3 -3
-12 -4 -19 -1 -8 3 -5 6 6 6 11 1 17 -2 13 -5z m86 -1 c-13 -2 -35 -2 -50 0
-16 2 -5 4 22 4 28 0 40 -2 28 -4z m105 0 c-16 -2 -40 -2 -55 0 -16 2 -3 4 27
4 30 0 43 -2 28 -4z m240 0 c-32 -2 -86 -2 -120 0 -35 2 -9 3 57 3 66 0 94 -1
63 -3z m-193 -83 c18 -8 17 -9 -7 -9 -16 -1 -28 4 -28 9 0 12 8 12 35 0z
m-670 -9 c-3 -5 3 -12 12 -14 10 -3 0 -5 -22 -6 -37 0 -39 1 -21 14 22 17 40
20 31 6z m788 2 c-7 -2 -19 -2 -25 0 -7 3 -2 5 12 5 14 0 19 -2 13 -5z m84 1
c-3 -3 -12 -4 -19 -1 -8 3 -5 6 6 6 11 1 17 -2 13 -5z m-1052 -23 c-3 -6 -11
-11 -17 -11 -6 0 -6 6 2 15 14 17 26 13 15 -4z m42 -47 c-3 -3 -12 -4 -19 -1
-8 3 -5 6 6 6 11 1 17 -2 13 -5z m151 -1 c-10 -2 -28 -2 -40 0 -13 2 -5 4 17
4 22 1 32 -1 23 -4z m-238 -48 c0 -13 -12 -14 -48 -6 -2 1 0 6 3 11 10 16 45
12 45 -5z m100 6 c0 -4 -20 -6 -45 -7 -24 0 -42 3 -39 8 6 9 84 8 84 -1z m-85
-41 c-3 -5 4 -11 17 -11 18 -1 19 -2 5 -6 -10 -3 -26 -2 -35 2 -14 5 -14 7 -2
15 19 12 23 12 15 0z m52 4 c-3 -3 -12 -4 -19 -1 -8 3 -5 6 6 6 11 1 17 -2 13
-5z m1059 -21 c-4 -9 -9 -43 -13 -75 -6 -58 -6 -58 -39 -58 -19 0 -34 5 -34
10 0 6 9 10 20 10 11 0 20 5 20 10 0 6 -7 10 -15 10 -22 0 -1 37 26 45 19 6
19 8 4 25 -20 22 -12 40 17 40 15 0 18 -4 14 -17z m-961 -23 c4 -6 -6 -10 -22
-9 -25 0 -26 1 -8 9 11 5 21 9 22 9 1 1 5 -3 8 -9z m950 -167 c4 -27 9 -55 11
-64 7 -26 -24 -31 -33 -6 -4 12 -8 27 -9 32 -2 23 -24 65 -34 65 -5 0 -10 5
-10 10 0 6 15 10 34 10 34 0 35 -1 41 -47z"/>
<path d="M1488 1663 c7 -3 16 -2 19 1 4 3 -2 6 -13 5 -11 0 -14 -3 -6 -6z"/>
<path d="M1558 1663 c6 -2 18 -2 25 0 6 3 1 5 -13 5 -14 0 -19 -2 -12 -5z"/>
<path d="M1740 1666 c0 -9 30 -14 35 -6 4 6 -3 10 -14 10 -12 0 -21 -2 -21 -4z"/>
<path d="M2143 1655 c8 -8 14 -9 18 -3 4 6 17 8 31 5 13 -3 29 -2 37 2 8 5 -9
9 -42 9 -44 0 -53 -3 -44 -13z"/>
<path d="M512 1638 c-20 -20 -14 -27 13 -15 14 7 25 15 25 20 0 11 -25 8 -38
-5z"/>
<path d="M1686 1643 c-12 -13 -6 -33 12 -32 12 0 13 2 3 6 -10 4 -10 7 -1 13
7 4 8 10 2 13 -5 4 -12 4 -16 0z"/>
<path d="M1744 1639 c-3 -5 7 -9 22 -9 15 0 24 3 20 7 -11 11 -35 12 -42 2z"/>
<path d="M1950 1636 c0 -8 -10 -17 -22 -19 -17 -3 -15 -5 9 -6 26 -1 30 2 26
19 -6 23 -13 26 -13 6z"/>
<path d="M2090 1639 c0 -5 5 -7 10 -4 6 3 10 8 10 11 0 2 -4 4 -10 4 -5 0 -10
-5 -10 -11z"/>
<path d="M3978 1643 c6 -2 18 -2 25 0 6 3 1 5 -13 5 -14 0 -19 -2 -12 -5z"/>
<path d="M466 1631 c-4 -7 -5 -15 -2 -18 9 -9 19 4 14 18 -4 11 -6 11 -12 0z"/>
<path d="M1590 1625 c7 -8 17 -15 22 -15 5 0 3 7 -6 15 -8 8 -18 15 -22 15 -3
0 -1 -7 6 -15z"/>
<path d="M2020 1620 l-25 -8 28 -1 c15 -1 27 4 27 9 0 6 -1 10 -2 9 -2 -1 -14
-5 -28 -9z"/>
<path d="M2200 1620 c-9 -6 -10 -10 -3 -10 6 0 15 5 18 10 8 12 4 12 -15 0z"/>
<path d="M2298 1623 c7 -3 16 -2 19 1 4 3 -2 6 -13 5 -11 0 -14 -3 -6 -6z"/>
<path d="M2448 1623 c7 -3 16 -2 19 1 4 3 -2 6 -13 5 -11 0 -14 -3 -6 -6z"/>
<path d="M2518 1623 c17 -2 47 -2 65 0 17 2 3 4 -33 4 -36 0 -50 -2 -32 -4z"/>
<path d="M2658 1623 c7 -3 16 -2 19 1 4 3 -2 6 -13 5 -11 0 -14 -3 -6 -6z"/>
<path d="M3696 1618 c-9 -5 -21 -6 -26 -3 -6 3 -10 0 -10 -7 0 -8 -3 -9 -8 -3
-12 16 -63 19 -57 3 7 -19 115 -23 127 -6 6 10 8 10 8 1 0 -7 5 -13 11 -13 5
0 7 6 3 13 -5 9 -4 9 6 0 10 -9 17 -9 32 0 15 10 21 9 28 -3 5 -8 10 -10 10
-3 0 7 22 11 63 11 96 -1 127 1 127 10 0 9 -127 8 -137 -1 -10 -11 -25 -8 -18
3 7 12 -136 11 -159 -2z"/>
<path d="M975 1610 c3 -5 8 -10 11 -10 2 0 4 5 4 10 0 6 -5 10 -11 10 -5 0 -7
-4 -4 -10z"/>
<path d="M1643 1593 c-1 -19 1 -22 8 -12 11 17 12 39 2 39 -5 0 -9 -12 -10
-27z"/>
<path d="M1838 1613 c6 -2 18 -2 25 0 6 3 1 5 -13 5 -14 0 -19 -2 -12 -5z"/>
<path d="M2078 1613 c7 -3 16 -2 19 1 4 3 -2 6 -13 5 -11 0 -14 -3 -6 -6z"/>
<path d="M3350 1609 c0 -5 5 -7 10 -4 6 3 10 8 10 11 0 2 -4 4 -10 4 -5 0 -10
-5 -10 -11z"/>
<path d="M3520 1605 c7 -8 26 -15 43 -15 29 0 30 1 11 15 -10 8 -30 15 -43 15
-20 0 -21 -2 -11 -15z"/>
<path d="M4028 1613 c7 -3 16 -2 19 1 4 3 -2 6 -13 5 -11 0 -14 -3 -6 -6z"/>
<path d="M3091 1606 c11 -9 69 -14 69 -6 0 6 -16 10 -37 10 -20 0 -34 -2 -32
-4z"/>
<path d="M1874 1586 c-10 -8 -16 -18 -11 -22 4 -4 7 -2 7 4 0 7 9 12 19 12 11
0 23 5 26 10 9 15 -18 12 -41 -4z"/>
<path d="M1975 1590 c-3 -5 3 -10 14 -10 12 0 21 5 21 10 0 6 -6 10 -14 10 -8
0 -18 -4 -21 -10z"/>
<path d="M2054 1591 c21 -8 406 -5 414 4 3 3 -93 5 -214 4 -120 0 -210 -4
-200 -8z"/>
<path d="M2493 1593 c9 -2 23 -2 30 0 6 3 -1 5 -18 5 -16 0 -22 -2 -12 -5z"/>
<path d="M2598 1593 c6 -2 18 -2 25 0 6 3 1 5 -13 5 -14 0 -19 -2 -12 -5z"/>
<path d="M2990 1590 c0 -5 5 -10 11 -10 5 0 7 5 4 10 -3 6 -8 10 -11 10 -2 0
-4 -4 -4 -10z"/>
<path d="M990 1580 c-12 -8 -9 -10 13 -10 16 0 26 4 22 10 -8 12 -16 12 -35 0z"/>
<path d="M1205 1580 c3 -5 16 -10 28 -9 21 0 21 1 2 9 -28 12 -37 12 -30 0z"/>
<path d="M1680 1580 c0 -5 5 -10 11 -10 5 0 7 5 4 10 -3 6 -8 10 -11 10 -2 0
-4 -4 -4 -10z"/>
<path d="M1730 1580 c-8 -5 -12 -11 -9 -14 2 -3 11 -1 19 4 8 5 12 11 9 14 -2
3 -11 1 -19 -4z"/>
<path d="M1790 1580 c0 -5 7 -7 15 -4 8 4 15 8 15 10 0 2 -7 4 -15 4 -8 0 -15
-4 -15 -10z"/>
<path d="M3088 1583 c7 -3 16 -2 19 1 4 3 -2 6 -13 5 -11 0 -14 -3 -6 -6z"/>
<path d="M470 1570 c19 -5 64 -9 100 -10 84 -2 90 -1 90 8 0 4 -51 8 -113 9
-79 1 -102 -1 -77 -7z"/>
<path d="M730 1569 c0 -12 71 -11 90 1 11 7 0 9 -37 8 -29 0 -53 -5 -53 -9z"/>
<path d="M1048 1573 c6 -2 18 -2 25 0 6 3 1 5 -13 5 -14 0 -19 -2 -12 -5z"/>
<path d="M1098 1573 c6 -2 18 -2 25 0 6 3 1 5 -13 5 -14 0 -19 -2 -12 -5z"/>
<path d="M645 1500 c-4 -6 3 -10 14 -10 25 0 27 6 6 13 -8 4 -17 2 -20 -3z"/>
<path d="M652 1445 c9 -9 147 -15 152 -6 3 4 -32 8 -77 10 -45 1 -79 0 -75 -4z"/>
<path d="M825 1440 c3 -5 21 -10 38 -9 27 0 29 2 12 9 -28 12 -57 12 -50 0z"/>
<path d="M935 1440 c-3 -5 1 -10 10 -10 9 0 13 5 10 10 -3 6 -8 10 -10 10 -2
0 -7 -4 -10 -10z"/>
<path d="M1224 1438 c-3 -4 6 -8 20 -8 14 0 26 4 26 8 0 4 -9 8 -21 8 -11 0
-23 -4 -25 -8z"/>
<path d="M1284 1443 c3 -4 17 -8 29 -10 17 -2 19 -1 7 7 -17 11 -47 14 -36 3z"/>
<path d="M1340 1441 c0 -12 148 -13 155 -1 5 8 -18 10 -74 9 -45 -1 -81 -5
-81 -8z"/>
<path d="M2224 1404 c-10 -9 -14 -13 -7 -10 6 4 23 2 37 -4 16 -6 26 -6 26 0
0 5 6 7 14 4 8 -3 23 -1 33 5 15 9 11 11 -22 9 -23 -1 -46 1 -52 5 -5 3 -19
-1 -29 -9z"/>
<path d="M1520 1399 c0 -5 5 -7 10 -4 6 3 10 8 10 11 0 2 -4 4 -10 4 -5 0 -10
-5 -10 -11z"/>
<path d="M1668 1403 c6 -2 18 -2 25 0 6 3 1 5 -13 5 -14 0 -19 -2 -12 -5z"/>
<path d="M1810 1400 c0 -5 6 -10 14 -10 8 0 18 5 21 10 3 6 -3 10 -14 10 -12
0 -21 -4 -21 -10z"/>
<path d="M1923 1403 c-13 -2 -23 -8 -23 -12 0 -4 -22 -8 -50 -10 -30 -1 -50 2
-50 9 0 5 -5 10 -11 10 -5 0 -7 -5 -4 -11 5 -7 -201 -10 -709 -7 -393 2 -708
0 -698 -3 14 -5 12 -7 -8 -11 l-25 -5 27 -2 c15 0 30 4 33 9 3 6 12 10 18 10
8 0 7 -4 -2 -9 -9 -6 287 -8 755 -5 915 5 834 3 809 14 -18 8 -18 9 -2 9 10 1
15 6 12 11 -6 10 -31 11 -72 3z"/>
<path d="M2090 1400 c0 -5 5 -10 11 -10 5 0 7 5 4 10 -3 6 -8 10 -11 10 -2 0
-4 -4 -4 -10z"/>
<path d="M2140 1400 c0 -5 7 -7 15 -4 8 4 15 8 15 10 0 2 -7 4 -15 4 -8 0 -15
-4 -15 -10z"/>
<path d="M2460 1402 c0 -12 19 -26 26 -19 2 2 -2 10 -11 17 -9 8 -15 8 -15 2z"/>
<path d="M2535 1401 c-3 -5 -2 -12 3 -15 12 -7 52 4 52 15 0 12 -47 12 -55 0z"/>
<path d="M2038 1383 c7 -3 16 -2 19 1 4 3 -2 6 -13 5 -11 0 -14 -3 -6 -6z"/>
<path d="M2330 1356 c0 -9 30 -14 35 -6 4 6 -3 10 -14 10 -12 0 -21 -2 -21 -4z"/>
<path d="M2410 1350 c0 -11 33 -12 105 0 48 7 48 7 -27 9 -46 0 -78 -3 -78 -9z"/>
<path d="M2583 1353 c9 -2 23 -2 30 0 6 3 -1 5 -18 5 -16 0 -22 -2 -12 -5z"/>
<path d="M510 1346 c0 -9 30 -14 35 -6 4 6 -3 10 -14 10 -12 0 -21 -2 -21 -4z"/>
<path d="M2630 1310 c0 -5 5 -10 10 -10 6 0 10 5 10 10 0 6 -4 10 -10 10 -5 0
-10 -4 -10 -10z"/>
<path d="M2753 1273 c9 -2 23 -2 30 0 6 3 -1 5 -18 5 -16 0 -22 -2 -12 -5z"/>
<path d="M2928 1203 c7 -3 16 -2 19 1 4 3 -2 6 -13 5 -11 0 -14 -3 -6 -6z"/>
<path d="M2988 1143 c7 -3 16 -2 19 1 4 3 -2 6 -13 5 -11 0 -14 -3 -6 -6z"/>
</g>
</svg>
